<?xml version="1.0" encoding="utf-8"?>
<!-- Generator: Adobe Illustrator 17.1.0, SVG Export Plug-In . SVG Version: 6.00 Build 0)  -->
<!DOCTYPE svg PUBLIC "-//W3C//DTD SVG 1.1//EN" "http://www.w3.org/Graphics/SVG/1.1/DTD/svg11.dtd">
<svg version="1.1" id="Layer_1" xmlns="http://www.w3.org/2000/svg" xmlns:xlink="http://www.w3.org/1999/xlink" x="0px" y="0px"
	 viewBox="0 0 481.9 492" enable-background="new 0 0 481.9 492" xml:space="preserve">
<g>
	<path fill="#01588A" d="M477.6,590.5c0,131.4-106.5,237.9-237.9,237.9C108.3,828.4,1.8,721.9,1.8,590.5
		c0-131.4,106.5-237.9,237.9-237.9C371.1,352.6,477.6,459.1,477.6,590.5z"/>
	<rect x="200" y="352.6" fill="#FFFFFF" width="79.3" height="237.9"/>
	
		<rect x="225.7" y="402.1" transform="matrix(0.7071 -0.7071 0.7071 0.7071 -224.0151 291.3689)" fill="#01588A" width="28" height="28"/>
	<polygon fill="#0E73BA" points="239.7,435.9 200,574.7 239.7,594.5 278.4,574.7 	"/>
	<path fill="#F07CAB" d="M279.7,356.1c0,22.1-17.9,40-40,40l0,0c-22.1,0-40-17.9-40-40V236.2c0-22.1,17.9-40,40-40l0,0
		c22.1,0,40,17.9,40,40V356.1z"/>
	<rect x="199.7" y="301.7" fill="#F07CAB" width="79.9" height="54.3"/>
	<path fill="#F3B6D1" d="M279.7,296.1c0,22.1-17.9,40-40,40c-22.1,0-40-17.9-40-40"/>
	<path fill="#F07CAB" d="M319.6,155.7v70.4c11,0,19.9-8.9,19.9-19.9v-30.5C339.6,164.7,330.7,155.7,319.6,155.7z"/>
	<path fill="#F07CAB" d="M159.7,155.7v70.4c-11,0-19.9-8.9-19.9-19.9v-30.5C139.8,164.6,148.7,155.7,159.7,155.7z"/>
	<polygon fill="#F3B6D1" points="159.7,96.2 159.7,256.1 199.7,306.1 279.7,306.1 319.6,256.1 319.6,96.2 	"/>
	<polygon fill="#F07CAB" points="229.7,166.2 189.7,166.2 169.7,186.2 229.7,186.2 	"/>
	<polygon fill="#A6A59D" points="179.7,36.2 279.7,36.2 329.8,96.2 329.8,172.8 319.6,226.1 319.6,96.2 159.7,96.2 159.7,226.1 
		149.5,176.2 149.5,96.2 119.8,96.2 	"/>
	<path fill="#0E73BA" d="M189.7,186.1c0,5.6,4.5,10,10,10c5.5,0,10-4.5,10-10H189.7z"/>
	<polygon fill="#F07CAB" points="249.7,166.2 289.7,166.2 309.7,186.2 249.7,186.2 	"/>
	<path fill="#0E73BA" d="M289.8,186.2c0,5.5-4.5,10-10,10c-5.5,0-10-4.5-10-10H289.8z"/>
	<path fill="#F07CAB" d="M299.7,226.1c0,11-9,20-20,20c-11,0-20-9-20-20c0-11,8.9-20,20-20C290.7,206.1,299.7,215.1,299.7,226.1z"/>
	<path fill="#F07CAB" d="M219.6,226.1c0,11-9,20-20,20c-11,0-20-9-20-20c0-11,8.9-20,20-20C210.7,206.1,219.6,215.1,219.6,226.1z"/>
	<polygon fill="#F07CAB" points="279.7,306.1 259.7,226.1 319.6,226.1 319.6,279.1 	"/>
	<polygon fill="#F07CAB" points="199.7,306.1 219.6,226.1 159.7,226.1 159.7,279.1 	"/>
	<polyline fill="#A6A59D" points="219.7,87.2 219.7,126.2 249.7,96.2 	"/>
	<polyline fill="#A6A59D" points="167.7,56.2 128.8,56.2 158.7,86.2 	"/>
	<polygon fill="#F07CAB" points="299.7,186.2 319.6,206.1 319.6,186.2 	"/>
	<polygon fill="#F07CAB" points="179.7,186.2 159.7,206.1 159.7,186.2 	"/>
	<polygon fill="#A6A59D" points="309.7,136.2 319.6,146.2 319.6,96.2 309.7,96.2 	"/>
	<polygon fill="#A6A59D" points="159.7,146.2 169.7,136.2 169.7,96.2 159.7,96.2 	"/>
	<path fill="#FFFFFF" d="M219.7,256.2c0,11,8.9,20,20,20c11,0,20-8.9,20-20H219.7z"/>
	<path fill="#F07CAB" d="M254.5,226.3c0,8.1-6.5,14.6-14.6,14.6c-8.1,0-14.6-6.5-14.6-14.6"/>
	<polygon fill="#F07CAB" points="219.6,186.2 229.7,196.1 229.7,186.2 	"/>
	<polygon fill="#F07CAB" points="259.8,186.2 249.7,196.1 249.7,186.2 	"/>
</g>
</svg>
