<?xml version="1.0" encoding="utf-8"?>
<!-- Generator: Adobe Illustrator 17.1.0, SVG Export Plug-In . SVG Version: 6.00 Build 0)  -->
<!DOCTYPE svg PUBLIC "-//W3C//DTD SVG 1.1//EN" "http://www.w3.org/Graphics/SVG/1.1/DTD/svg11.dtd">
<svg version="1.1" id="Layer_1" xmlns="http://www.w3.org/2000/svg" xmlns:xlink="http://www.w3.org/1999/xlink" x="0px" y="0px"
	 viewBox="0 0 481.9 492" enable-background="new 0 0 481.9 492" xml:space="preserve">
<g>
	<g>
		<path fill="#7E8183" d="M481.6,545.9c0,132.4-107.4,239.8-239.8,239.8C109.4,785.7,2,678.3,2,545.9
			c0-132.4,107.4-239.8,239.8-239.8C374.3,306.1,481.6,413.4,481.6,545.9z"/>
	</g>
	<rect x="182.9" y="319" fill="#AACDEC" width="117.9" height="266.8"/>
	<polygon fill="#E22428" points="241.8,386 221.8,406 241.8,426 261.8,406 	"/>
	<polygon fill="#EE432F" points="241.8,426 201.9,565.9 241.8,585.8 281.8,565.9 	"/>
	<g>
		<path fill="#8B643A" d="M152.8,165.6l16,0.4l-7,70c-11,0-20-8.9-20-20l-9-30.5C132.9,174.5,141.8,165.6,152.8,165.6z"/>
		<path fill="#8B643A" d="M330.9,165.6l-16,0.4l7,70c11,0,20-8.9,20-20l9-30.5C350.8,174.5,341.9,165.6,330.9,165.6z"/>
		<path fill="#8B643A" d="M181.9,186.1v140c0,33.1,26.8,59.9,59.9,59.9c33.1,0,59.9-26.8,59.9-59.9v-140H181.9z"/>
		<path fill="#C2986B" d="M161.8,115.9v120c0,44.2,35.8,80.1,80.1,80.1c44.2,0,80.1-35.8,80.1-80.1v-120H161.8z"/>
		<polygon fill="#DCDCDA" points="331.8,115.9 291.8,75.8 291.8,75.9 291.8,75.8 151.7,75.8 151.7,135.2 151.7,155.9 151.7,215.9 
			161.7,215.9 161.7,175.9 171.8,175.9 171.8,115.9 171.6,115.9 171.8,115.7 311.8,115.8 311.9,115.9 311.8,115.9 311.8,175.9 
			321.8,175.9 321.8,215.9 331.8,215.9 331.8,155.9 331.9,155.9 331.9,115.9 		"/>
		<path fill="#8B643A" d="M221.8,225.9c0,11,9,20,20,20c11.1,0,20-9,20-20H221.8z"/>
		<path fill="#FFFFFF" d="M221.8,255.9c0,11.1,9,20,20,20c11.1,0,20-9,20-20H221.8z"/>
		<path fill="#221F1F" d="M211.9,191.9c0,5.5-4.5,10-10,10c-5.5,0-10-4.5-10-10"/>
		<polygon fill="#221F1F" points="232,191.9 171.7,191.9 181.8,181.9 232,181.9 		"/>
		<path fill="#221F1F" d="M291.8,191.9c0,5.5-4.5,10-10,10c-5.5,0-10-4.5-10-10"/>
		<polygon fill="#221F1F" points="312.1,191.9 251.9,191.9 251.9,181.9 301.9,181.9 		"/>
		<polygon fill="#8B643A" points="221.9,191.9 232,201.9 232,191.9 		"/>
		<polygon fill="#8B643A" points="261.9,191.9 251.8,201.9 251.8,191.9 		"/>
		<path fill="#8B643A" d="M232,201.9c0,11.1-9,20.2-20.2,20.2h-19.8c-11.1,0-20.2-9-20.2-20.2"/>
		<path fill="#8B643A" d="M312.1,201.9c0,11.1-9,20.2-20.2,20.2h-19.8c-11.1,0-20.2-9-20.2-20.2"/>
		<polygon fill="#C1C3C4" points="241.9,136 221.7,115.9 241.9,95.7 262.1,115.9 		"/>
	</g>
	<polygon fill="#BDBCBC" points="151.7,75.8 171.8,115.9 221.7,115.9 241.9,136 262.1,115.9 331.9,115.9 291.8,75.9 	"/>
</g>
</svg>
